<svg xmlns="http://www.w3.org/2000/svg" xmlns:xlink="http://www.w3.org/1999/xlink" width="500" zoomAndPan="magnify" viewBox="0 0 375 187.499995" height="250" preserveAspectRatio="xMidYMid meet" version="1.0"><defs><g/><clipPath id="1a742935c6"><path d="M 225 0 L 374.5 0 L 374.5 137 L 225 137 Z M 225 0 " clip-rule="nonzero"/></clipPath><clipPath id="31f0b6cbd4"><rect x="0" width="150" y="0" height="137"/></clipPath></defs><g clip-path="url(#1a742935c6)"><g transform="matrix(1, 0, 0, 1, 225, 0)"><g clip-path="url(#31f0b6cbd4)"><g fill="#e7191f" fill-opacity="1"><g transform="translate(18.120246, 39.280134)"><g><path d="M 36.78125 -3.984375 L 35.484375 -0.984375 C 34.597656 1.078125 33.238281 2.960938 31.40625 4.671875 C 29.582031 6.378906 27.300781 7.492188 24.5625 8.015625 C 21.820312 8.546875 18.773438 8.085938 15.421875 6.640625 L 3.734375 1.609375 C 2.835938 1.222656 2.25 0.65625 1.96875 -0.09375 C 1.6875 -0.851562 1.703125 -1.585938 2.015625 -2.296875 C 2.316406 -3.003906 2.816406 -3.515625 3.515625 -3.828125 C 4.222656 -4.140625 5.117188 -4.082031 6.203125 -3.65625 L 6.453125 -3.546875 L 15.46875 -24.484375 L 15.09375 -24.65625 C 14.144531 -25.0625 13.539062 -25.644531 13.28125 -26.40625 C 13.019531 -27.164062 13.035156 -27.890625 13.328125 -28.578125 C 13.585938 -29.171875 14.054688 -29.671875 14.734375 -30.078125 C 15.410156 -30.484375 16.28125 -30.457031 17.34375 -30 L 29.3125 -24.84375 C 31.832031 -23.757812 33.878906 -22.097656 35.453125 -19.859375 C 37.023438 -17.617188 37.929688 -15.097656 38.171875 -12.296875 C 38.421875 -9.492188 37.957031 -6.722656 36.78125 -3.984375 Z M 30.203125 -3.4375 L 31.453125 -6.328125 C 32.035156 -7.679688 32.34375 -9.21875 32.375 -10.9375 C 32.40625 -12.65625 31.972656 -14.316406 31.078125 -15.921875 C 30.179688 -17.535156 28.722656 -18.78125 26.703125 -19.65625 L 20.8125 -22.1875 L 11.796875 -1.25 L 17.9375 1.390625 C 20.082031 2.316406 21.984375 2.609375 23.640625 2.265625 C 25.304688 1.921875 26.675781 1.210938 27.75 0.140625 C 28.820312 -0.929688 29.640625 -2.125 30.203125 -3.4375 Z M 30.203125 -3.4375 "/></g></g></g><g fill="#e7191f" fill-opacity="1"><g transform="translate(41.040284, 48.596735)"><g><path d="M 38.703125 -5.921875 C 37.804688 -4.285156 36.554688 -3.082031 34.953125 -2.3125 C 33.347656 -1.539062 31.273438 -1.179688 28.734375 -1.234375 C 29.804688 1.546875 30.46875 5.0625 30.71875 9.3125 L 30.828125 10.453125 L 31.84375 11.015625 C 32.5625 11.410156 33.054688 11.972656 33.328125 12.703125 C 33.609375 13.429688 33.523438 14.203125 33.078125 15.015625 C 32.785156 15.554688 32.273438 16.003906 31.546875 16.359375 C 30.816406 16.710938 29.992188 16.632812 29.078125 16.125 L 25.421875 14.09375 L 25.40625 13.890625 C 25.070312 8.503906 24.488281 4.507812 23.65625 1.90625 C 22.832031 -0.6875 22.125 -2.351562 21.53125 -3.09375 L 16.484375 -5.890625 L 12.921875 0.53125 L 15.484375 1.953125 C 16.148438 2.316406 16.644531 2.863281 16.96875 3.59375 C 17.300781 4.332031 17.234375 5.125 16.765625 5.96875 C 16.472656 6.507812 15.953125 6.953125 15.203125 7.296875 C 14.460938 7.640625 13.617188 7.550781 12.671875 7.03125 L 3.546875 1.96875 C 2.535156 1.40625 1.988281 0.722656 1.90625 -0.078125 C 1.820312 -0.878906 1.925781 -1.550781 2.21875 -2.09375 C 2.59375 -2.757812 3.15625 -3.210938 3.90625 -3.453125 C 4.664062 -3.703125 5.472656 -3.59375 6.328125 -3.125 L 7.84375 -2.296875 L 18.90625 -22.234375 L 17.390625 -23.0625 C 16.503906 -23.550781 15.972656 -24.175781 15.796875 -24.9375 C 15.617188 -25.695312 15.71875 -26.421875 16.09375 -27.109375 C 16.4375 -27.722656 16.984375 -28.171875 17.734375 -28.453125 C 18.492188 -28.742188 19.316406 -28.644531 20.203125 -28.15625 L 32.640625 -21.265625 C 34.609375 -20.171875 36.238281 -18.785156 37.53125 -17.109375 C 38.832031 -15.441406 39.613281 -13.632812 39.875 -11.6875 C 40.144531 -9.738281 39.753906 -7.816406 38.703125 -5.921875 Z M 33.65625 -8.921875 C 34.289062 -10.078125 34.21875 -11.347656 33.4375 -12.734375 C 32.664062 -14.117188 31.519531 -15.234375 30 -16.078125 L 23.984375 -19.40625 L 19.296875 -10.96875 L 23.484375 -8.65625 C 24.660156 -8 25.957031 -7.53125 27.375 -7.25 C 28.800781 -6.976562 30.085938 -6.976562 31.234375 -7.25 C 32.378906 -7.519531 33.1875 -8.078125 33.65625 -8.921875 Z M 33.65625 -8.921875 "/></g></g></g><g fill="#e7191f" fill-opacity="1"><g transform="translate(62.478553, 59.843223)"><g><path d="M 29.890625 13.625 L 30.40625 14 C 31.394531 14.675781 31.9375 15.40625 32.03125 16.1875 C 32.132812 16.96875 31.96875 17.675781 31.53125 18.3125 C 31.175781 18.820312 30.617188 19.210938 29.859375 19.484375 C 29.097656 19.765625 28.253906 19.582031 27.328125 18.9375 L 19.6875 13.640625 C 18.726562 12.972656 18.234375 12.238281 18.203125 11.4375 C 18.171875 10.632812 18.34375 9.960938 18.71875 9.421875 C 19.070312 8.910156 19.617188 8.507812 20.359375 8.21875 C 21.097656 7.9375 21.976562 8.148438 23 8.859375 L 24.71875 10.046875 L 25.59375 6.359375 L 13.96875 -1.703125 L 10.8125 0.421875 L 12.640625 1.671875 C 13.304688 2.140625 13.753906 2.75 13.984375 3.5 C 14.222656 4.257812 14.066406 5.035156 13.515625 5.828125 C 13.160156 6.335938 12.601562 6.726562 11.84375 7 C 11.09375 7.28125 10.265625 7.109375 9.359375 6.484375 L 1.53125 1.0625 C 0.675781 0.46875 0.21875 -0.210938 0.15625 -0.984375 C 0.09375 -1.753906 0.273438 -2.441406 0.703125 -3.046875 C 1.253906 -3.835938 1.921875 -4.253906 2.703125 -4.296875 C 3.492188 -4.347656 4.207031 -4.15625 4.84375 -3.71875 L 5.65625 -3.15625 L 26.140625 -16.6875 L 22.40625 -19.28125 C 21.644531 -19.8125 21.171875 -20.453125 20.984375 -21.203125 C 20.804688 -21.960938 20.972656 -22.710938 21.484375 -23.453125 C 21.859375 -23.992188 22.425781 -24.390625 23.1875 -24.640625 C 23.945312 -24.890625 24.789062 -24.695312 25.71875 -24.0625 L 36.671875 -16.484375 Z M 19.203125 -5.15625 L 26.9375 0.21875 L 29.640625 -11.9375 Z M 19.203125 -5.15625 "/></g></g></g><g fill="#e7191f" fill-opacity="1"><g transform="translate(83.53941, 73.820648)"><g><path d="M 31.90625 -14.21875 C 31.476562 -13.71875 30.867188 -13.378906 30.078125 -13.203125 C 29.296875 -13.035156 28.460938 -13.332031 27.578125 -14.09375 L 24.703125 -16.546875 L 15.609375 -2.90625 L 15.6875 -2.828125 L 27.890625 -10.21875 L 32.5 -6.296875 L 27.15625 6.9375 L 27.25 7.015625 L 39.171875 -4.203125 L 36.296875 -6.65625 C 35.472656 -7.363281 35.082031 -8.128906 35.125 -8.953125 C 35.164062 -9.785156 35.390625 -10.4375 35.796875 -10.90625 C 36.222656 -11.40625 36.828125 -11.738281 37.609375 -11.90625 C 38.390625 -12.082031 39.226562 -11.796875 40.125 -11.046875 L 47.015625 -5.171875 C 47.960938 -4.359375 48.394531 -3.546875 48.3125 -2.734375 C 48.238281 -1.929688 48.003906 -1.296875 47.609375 -0.828125 C 47.078125 -0.210938 46.457031 0.117188 45.75 0.171875 C 45.039062 0.234375 44.335938 0.0390625 43.640625 -0.40625 L 22.53125 19.1875 L 17.609375 15 L 24.15625 -1.125 L 24.078125 -1.1875 L 9.28125 7.921875 L 4.296875 3.65625 L 20.21875 -20.359375 C 19 -21.691406 18.914062 -22.976562 19.96875 -24.21875 C 20.445312 -24.78125 21.082031 -25.144531 21.875 -25.3125 C 22.675781 -25.476562 23.488281 -25.210938 24.3125 -24.515625 L 31.359375 -18.515625 C 32.242188 -17.753906 32.660156 -16.972656 32.609375 -16.171875 C 32.566406 -15.367188 32.332031 -14.71875 31.90625 -14.21875 Z M 31.90625 -14.21875 "/></g></g></g><g fill="#e7191f" fill-opacity="1"><g transform="translate(102.696408, 89.477423)"><g><path d="M 32.59375 -13.65625 C 33.40625 -14.4375 34.441406 -14.894531 35.703125 -15.03125 C 36.972656 -15.164062 38.144531 -14.671875 39.21875 -13.546875 C 40.269531 -12.460938 40.703125 -11.285156 40.515625 -10.015625 C 40.335938 -8.753906 39.859375 -7.75 39.078125 -7 L 37.5 -5.625 L 23.78125 5.296875 C 23.101562 5.828125 22.394531 6.082031 21.65625 6.0625 C 20.925781 6.050781 20.28125 5.753906 19.71875 5.171875 C 19.125 4.546875 18.835938 3.867188 18.859375 3.140625 C 18.890625 2.421875 19.1875 1.738281 19.75 1.09375 L 31.34375 -12.28125 Z M 15.734375 9.078125 C 16.484375 9.859375 16.882812 10.613281 16.9375 11.34375 C 16.988281 12.070312 16.695312 12.820312 16.0625 13.59375 C 14.5 14.882812 12.960938 14.75 11.453125 13.1875 C 10.734375 12.4375 10.351562 11.632812 10.3125 10.78125 C 10.269531 9.925781 10.578125 9.1875 11.234375 8.5625 C 11.867188 7.945312 12.585938 7.679688 13.390625 7.765625 C 14.203125 7.859375 14.984375 8.296875 15.734375 9.078125 Z M 15.734375 9.078125 "/></g></g></g></g></g></g><g fill="#e7191f" fill-opacity="1"><g transform="translate(7.293098, 174.975168)"><g><path d="M 8 0 L 8 -78.796875 C 15.070312 -79.484375 25.046875 -79.828125 37.921875 -79.828125 C 48.953125 -79.828125 56.503906 -78.035156 60.578125 -74.453125 C 64.648438 -70.878906 66.6875 -64.101562 66.6875 -54.125 C 66.6875 -44.15625 64.765625 -37.363281 60.921875 -33.75 C 57.078125 -30.132812 50.171875 -28.328125 40.203125 -28.328125 C 35.171875 -28.328125 30.222656 -28.628906 25.359375 -29.234375 L 25.359375 0 Z M 25.359375 -41.6875 L 37.578125 -41.6875 C 42.066406 -41.757812 45.128906 -42.632812 46.765625 -44.3125 C 48.398438 -45.988281 49.21875 -49.257812 49.21875 -54.125 C 49.21875 -59 48.398438 -62.273438 46.765625 -63.953125 C 45.128906 -65.628906 42.066406 -66.46875 37.578125 -66.46875 L 25.359375 -66.359375 Z M 25.359375 -41.6875 "/></g></g></g><g fill="#e7191f" fill-opacity="1"><g transform="translate(69.867055, 174.975168)"><g><path d="M 43.515625 -26.03125 L 43.515625 0 L 26.03125 0 L 26.03125 -26.03125 L 0 -78.796875 L 18.15625 -78.796875 L 31.296875 -49.90625 C 32.054688 -48.226562 33.046875 -44.914062 34.265625 -39.96875 L 35.40625 -39.96875 C 36.3125 -44.082031 37.265625 -47.394531 38.265625 -49.90625 L 51.390625 -78.796875 L 69.328125 -78.796875 Z M 43.515625 -26.03125 "/></g></g></g><g fill="#e7191f" fill-opacity="1"><g transform="translate(131.755896, 174.975168)"><g><path d="M 66.578125 -64.640625 L 43.046875 -64.640625 L 43.046875 0 L 25.578125 0 L 25.578125 -64.640625 L 2.0625 -64.640625 L 2.0625 -78.796875 L 66.578125 -78.796875 Z M 66.578125 -64.640625 "/></g></g></g><g fill="#e7191f" fill-opacity="1"><g transform="translate(192.845417, 174.975168)"><g><path d="M 70.578125 -78.796875 L 70.578125 0 L 53.21875 0 L 53.21875 -35.171875 L 25.359375 -35.171875 L 25.359375 0 L 8 0 L 8 -78.796875 L 25.359375 -78.796875 L 25.359375 -48.65625 L 53.21875 -48.65625 L 53.21875 -78.796875 Z M 70.578125 -78.796875 "/></g></g></g><g fill="#e7191f" fill-opacity="1"><g transform="translate(263.869268, 174.975168)"><g><path d="M 50.703125 -20.671875 L 23.640625 -20.671875 L 17.9375 0 L 0.109375 0 L 22.84375 -74.234375 C 23.144531 -75.597656 23.863281 -76.695312 25 -77.53125 C 26.144531 -78.375 27.441406 -78.796875 28.890625 -78.796875 L 45.34375 -78.796875 C 48.613281 -78.796875 50.628906 -77.273438 51.390625 -74.234375 L 74.125 0 L 56.421875 0 Z M 46.9375 -34.140625 L 40.3125 -58.25 C 39.394531 -62.050781 38.863281 -64.523438 38.71875 -65.671875 L 35.625 -65.671875 C 35.476562 -64.910156 35.210938 -63.691406 34.828125 -62.015625 C 34.453125 -60.335938 34.148438 -59.082031 33.921875 -58.25 L 27.296875 -34.140625 Z M 46.9375 -34.140625 "/></g></g></g></svg>